<?xml version="1.0" encoding="utf-8"?>
<!-- Generator: Adobe Illustrator 25.0.1, SVG Export Plug-In . SVG Version: 6.00 Build 0)  -->
<svg version="1.1" id="Layer_1" xmlns:v="https://vecta.io/nano"
	 xmlns="http://www.w3.org/2000/svg" xmlns:xlink="http://www.w3.org/1999/xlink" x="0px" y="0px" viewBox="0 0 602 602"
	 style="enable-background:new 0 0 602 602;" xml:space="preserve">
<path d="M309.7,0c6.9,0,13.7,3.4,18.6,9.4L548,279.7c9.9,12.2,9.9,30.6,0,42.7L328.1,592.7c-4.9,6-11.6,9.4-18.5,9.4
	c-7.1,0-13.8-3.4-18.4-9.4l-0.1-0.1c-9.8-12.2-9.7-30.6,0.1-42.7l177.5-218.3H72.3c-14.3,0-25.9-13.7-25.9-30.6
	c0-17.1,11.3-30.5,25.8-30.5h396.4L291.1,52.1c-9.9-12.2-9.9-30.6,0-42.7C296,3.4,302.7,0,309.7,0z"/>
</svg>
