<svg
   width="22"
   height="22"
   viewBox="0 0 22 22">
  <path
     d="M18.5625 10.3125H4.84722L10.099 5.31023C10.374 5.0483 10.3847 4.61311 10.1227 4.33811C9.86116 4.06345 9.42597 4.05245 9.15063 4.31439L3.15287 10.0275C2.89334 10.2874 2.75 10.6325 2.75 11C2.75 11.3671 2.89334 11.7126 3.16491 11.9838L9.15097 17.6852C9.284 17.8121 9.4545 17.875 9.625 17.875C9.8065 17.875 9.988 17.8035 10.1231 17.6615C10.385 17.3865 10.3744 16.9517 10.0994 16.6897L4.82556 11.6875H18.5625C18.942 11.6875 19.25 11.3795 19.25 11C19.25 10.6205 18.942 10.3125 18.5625 10.3125Z"/>
</svg>
