<svg xmlns="http://www.w3.org/2000/svg" viewBox="0 0 11.874 12.162">
  <path id="filter" d="M11.324,12.26a.714.714,0,0,1-.708-.717V7.15a.865.865,0,0,0-.172-.515l-.012-.014v0L6.613,1.238a.722.722,0,0,1-.056-.75A.712.712,0,0,1,7.194.1H17.636a.717.717,0,0,1,.58,1.138L14.4,6.621a.1.1,0,0,1-.012.016.873.873,0,0,0-.169.515v3.568a.69.69,0,0,1-.471.671l-2.14.817a.7.7,0,0,1-.274.053l0,0Zm-.037-6.24a1.89,1.89,0,0,1,.371,1.131v3.919l1.516-.578V7.15a1.9,1.9,0,0,1,.371-1.131l3.464-4.878H7.823L11.287,6.02Z" transform="translate(-6.478 -0.1)"/>
</svg>
