<?xml version="1.0" encoding="UTF-8" standalone="no"?>
<svg
   id="noi-logo-pride"
   viewBox="0 0 1021.8982 97.258424"
   width="164.67404"
   version="1.1"
   sodipodi:docname="logo-not-pride.svg"
   inkscape:version="1.2.2 (732a01da63, 2022-12-09)"
   xml:space="preserve"
   height="97.258423"
   xmlns:inkscape="http://www.inkscape.org/namespaces/inkscape"
   xmlns:sodipodi="http://sodipodi.sourceforge.net/DTD/sodipodi-0.dtd"
   xmlns:xlink="http://www.w3.org/1999/xlink"
   xmlns="http://www.w3.org/2000/svg"
   xmlns:svg="http://www.w3.org/2000/svg"><defs
     id="defs383" /><sodipodi:namedview
     id="namedview381"
     pagecolor="#505050"
     bordercolor="#eeeeee"
     borderopacity="1"
     inkscape:showpageshadow="0"
     inkscape:pageopacity="0"
     inkscape:pagecheckerboard="false"
     inkscape:deskcolor="#505050"
     showgrid="true"
     inkscape:zoom="7.2929732"
     inkscape:cx="59.920692"
     inkscape:cy="38.393121"
     inkscape:window-width="1680"
     inkscape:window-height="987"
     inkscape:window-x="-8"
     inkscape:window-y="17"
     inkscape:window-maximized="1"
     inkscape:current-layer="noi-logo-pride"><inkscape:grid
       type="xygrid"
       id="grid741"
       dotted="false"
       originx="2050.7698"
       originy="-164.38748"
       empspacing="4"
       enabled="true" /></sodipodi:namedview><path
     d="m 156.76562,210.28481 h 11.46511 v -3.76056 h -11.46511 v -10.0893 h 13.02436 v -3.76056 h -17.51869 v 33.29469 h 17.88558 v -3.76056 h -13.39125 z"
     data-name="Pfad 1"
     id="Pfad_1"
     style="stroke-width:0.917209" /><path
     d="m 357.63439,192.67439 h -5.22809 l -13.11609,15.86772 v -15.86772 h -4.49432 v 33.29469 h 4.49432 v -17.24353 l 13.5747,17.24353 h 5.59497 l -14.12502,-17.70213 z"
     data-name="Pfad 2"
     id="Pfad_2"
     style="stroke-width:0.917209" /><path
     d="m 471.00143,196.43495 h 9.44725 v 29.53413 h 4.49433 v -29.53413 h 9.44725 v -3.76056 h -23.38883 z"
     data-name="Pfad 3"
     id="Pfad_3"
     style="stroke-width:0.917209" /><path
     d="m 505.58021,192.67439 h -4.58604 v 33.38641 h 4.58604 z"
     data-name="Pfad 4"
     id="Pfad_4"
     style="stroke-width:0.917209" /><path
     d="m 835.68374,192.67439 h -4.58604 v 33.38641 h 4.58604 z"
     data-name="Pfad 5"
     id="Pfad_5"
     style="stroke-width:0.917209" /><path
     d="m 689.3889,196.43495 h 9.35553 v 29.53413 h 4.58605 v -29.53413 h 9.44725 v -3.76056 H 689.3889 Z"
     data-name="Pfad 6"
     id="Pfad_6"
     style="stroke-width:0.917209" /><path
     d="m 121.81995,196.43495 h 9.35553 v 29.53413 h 4.58605 v -29.53413 h 9.44725 v -3.76056 h -23.38883 z"
     data-name="Pfad 7"
     id="Pfad_7"
     style="stroke-width:0.917209" /><path
     d="m 232.43536,206.52425 h -18.06902 v -13.84986 h -4.49432 v 33.29469 h 4.49432 v -15.59255 h 18.06902 v 15.59255 h 4.58605 v -33.29469 h -4.58605 z"
     data-name="Pfad 8"
     id="Pfad_8"
     style="stroke-width:0.917209" /><path
     d="m 192.44505,222.75885 c -7.97972,0 -11.74028,-6.60391 -11.74028,-13.66641 0,-6.97079 3.944,-13.29954 11.64856,-13.29954 a 11.840251,11.840251 0 0 1 7.33767,2.20131 l 2.2013,-3.39368 a 16.509763,16.509763 0 0 0 -9.44725,-2.56818 c -10.45619,0 -16.50977,8.16316 -16.50977,17.15181 0,8.98864 5.87014,17.33525 16.41805,17.33525 a 16.012635,16.012635 0 0 0 10.18102,-3.39368 l -2.01786,-3.21023 a 11.903539,11.903539 0 0 1 -8.07144,2.84335 z"
     data-name="Pfad 9"
     id="Pfad_9"
     style="stroke-width:0.917209" /><path
     d="m 256.46624,192.67439 h -8.89693 v 33.38641 h 4.58605 v -13.20781 h 3.66883 c 7.888,0 12.56577,-3.66883 12.56577,-10.36446 0,-6.6039 -5.13637,-9.81414 -11.92372,-9.81414 z m -0.55033,16.41805 h -3.76055 v -12.74921 h 3.94399 c 5.59498,0 7.70456,2.47646 7.70456,6.23702 0,4.31088 -2.38474,6.51219 -7.888,6.51219 z"
     data-name="Pfad 10"
     id="Pfad_10"
     style="stroke-width:0.917209" /><path
     d="m 282.05637,192.67439 -12.74921,33.38641 h 4.49433 l 2.84335,-7.888 h 14.85878 l 2.93507,7.888 h 4.95293 l -12.84093,-33.38641 z m -3.944,21.73786 4.03572,-10.73135 c 0.91721,-2.56818 1.46754,-4.21916 1.92614,-5.77841 h 0.0917 c 0.45861,1.37581 0.91721,2.93506 2.01786,5.77841 l 3.944,10.73135 z"
     data-name="Pfad 11"
     id="Pfad_11"
     style="stroke-width:0.917209" /><path
     d="m 318.56129,212.0275 c 4.4026,-1.46753 6.87907,-4.67776 6.87907,-9.53897 0,-6.6039 -5.13637,-9.81414 -11.92372,-9.81414 h -8.89693 v 33.38641 h 4.58605 v -13.29953 h 3.48539 a 2.7727229,2.7727229 0 0 1 1.37582,0.36689 c 0.9172,0.64204 2.01786,2.01786 4.21916,5.13637 l 5.31981,7.70455 h 5.22809 l -7.24595,-10.27274 a 39.448243,39.448243 0 0 0 -3.02679,-3.66884 z m -5.59498,-2.93506 h -3.76055 v -12.74921 h 3.944 c 5.59497,0 7.70455,2.47646 7.70455,6.23702 0,4.31088 -2.29302,6.51219 -7.888,6.51219 z"
     data-name="Pfad 12"
     id="Pfad_12"
     style="stroke-width:0.917209" /><path
     d="m 389.82843,206.61597 c -3.39367,-1.55925 -6.05358,-2.93507 -6.05358,-6.1453 0,-2.93507 2.38475,-4.67777 5.59498,-4.67777 a 10.584592,10.584592 0 0 1 6.78734,2.29303 l 2.10958,-3.30196 c -1.19237,-0.9172 -3.94399,-2.6599 -8.98864,-2.6599 -5.2281,0 -9.90586,3.11851 -9.90586,8.62176 0,5.31982 3.57711,7.52112 7.61283,9.53898 3.85228,1.92614 7.61284,3.48539 7.61284,7.24595 0,2.84335 -2.56819,5.31981 -6.51219,5.31981 a 10.353456,10.353456 0 0 1 -7.52111,-2.84335 l -2.2013,3.21023 a 14.13786,14.13786 0 0 0 9.63069,3.39368 c 6.69563,0 11.09823,-3.76056 11.09823,-9.17209 0,-6.42047 -4.86121,-8.71349 -9.26381,-10.82307 z"
     data-name="Pfad 13"
     id="Pfad_13"
     style="stroke-width:0.917209" /><path
     d="m 414.77652,190.01449 a 2.9350689,2.9350689 0 0 0 2.93507,-2.84335 2.8892084,2.8892084 0 1 0 -2.93507,2.84335 z"
     data-name="Pfad 14"
     id="Pfad_14"
     style="stroke-width:0.917209" /><path
     d="m 424.31549,190.01449 a 2.843348,2.843348 0 1 0 -2.84335,-2.84335 2.9194763,2.9194763 0 0 0 2.84335,2.84335 z"
     data-name="Pfad 15"
     id="Pfad_15"
     style="stroke-width:0.917209" /><path
     d="m 428.44293,213.58676 c 0,5.50325 -2.75163,9.17209 -8.53004,9.17209 -6.05358,0 -8.80521,-3.11851 -8.80521,-9.81414 v -20.27032 h -4.49432 v 20.82065 c 0,7.97972 3.944,13.20781 13.20781,13.20781 8.8052,0 12.84092,-5.13637 12.84092,-13.48297 v -20.45377 h -4.21916 z"
     data-name="Pfad 16"
     id="Pfad_16"
     style="stroke-width:0.917209" /><path
     d="m 449.99734,192.67439 h -8.25488 v 33.38641 h 7.97972 c 13.29953,0 19.16967,-7.42939 19.16967,-17.06009 0.0917,-9.72241 -5.77842,-16.32632 -18.89451,-16.32632 z m 0.18345,29.62586 h -3.85228 v -25.95702 h 3.57711 c 9.72242,0 14.30846,3.944 14.30846,12.65748 0,8.71349 -4.8612,13.29954 -14.03329,13.29954 z"
     data-name="Pfad 17"
     id="Pfad_17"
     style="stroke-width:0.917209" /><path
     d="m 530.06969,212.0275 c 4.40261,-1.46753 6.87907,-4.67776 6.87907,-9.53897 0,-6.6039 -5.13637,-9.81414 -11.92372,-9.81414 h -8.89693 v 33.38641 h 4.58605 v -13.29953 h 3.48539 a 2.7727229,2.7727229 0 0 1 1.37582,0.36689 c 0.91721,0.64204 2.01786,2.01786 4.21916,5.13637 l 5.31981,7.70455 h 5.22809 l -7.24595,-10.27274 a 39.444574,39.444574 0 0 0 -3.02679,-3.66884 z m -5.68669,-2.93506 h -3.76056 v -12.74921 h 3.944 c 5.59497,0 7.70455,2.47646 7.70455,6.23702 0,4.31088 -2.29302,6.51219 -7.88799,6.51219 z"
     data-name="Pfad 18"
     id="Pfad_18"
     style="stroke-width:0.917209" /><path
     d="m 675.99765,192.67439 h -4.49433 v 33.29469 h 17.5187 v -3.76056 h -13.02437 z"
     data-name="Pfad 19"
     id="Pfad_19"
     style="stroke-width:0.917209" /><path
     d="m 647.10556,192.67439 -12.7492,33.38641 h 4.49432 l 2.84335,-7.888 h 14.85879 l 2.93507,7.888 h 4.95292 l -12.84092,-33.38641 z m -3.94399,21.73786 4.03572,-10.73135 c 0.9172,-2.56818 1.46753,-4.21916 1.92613,-5.77841 h 0.0917 c 0.45861,1.37581 0.91721,2.93506 2.01786,5.77841 l 3.944,10.73135 z"
     data-name="Pfad 20"
     id="Pfad_20"
     style="stroke-width:0.917209" /><path
     d="m 559.14522,192.03235 c -10.45618,0 -16.50976,8.16316 -16.50976,17.33525 0,9.08037 6.1453,17.24353 16.60148,17.24353 10.45618,0 16.50976,-8.16316 16.50976,-17.33525 0,-9.17209 -6.1453,-17.24353 -16.60148,-17.24353 z m 0,30.81822 c -7.70456,0 -11.74028,-6.32874 -11.74028,-13.57469 0,-7.24595 4.12744,-13.48298 11.832,-13.48298 7.70455,0 11.64855,6.32875 11.64855,13.5747 0,7.24595 -4.03572,13.48297 -11.74027,13.48297 z"
     data-name="Pfad 21"
     id="Pfad_21"
     style="stroke-width:0.917209" /><path
     d="m 613.26055,225.96908 h 4.12744 l 12.01544,-33.29469 h -4.03572 z"
     data-name="Pfad 22"
     id="Pfad_22"
     style="stroke-width:0.917209" /><path
     d="m 588.49591,192.67439 h -4.49433 v 33.29469 h 17.5187 v -3.76056 h -13.02437 z"
     data-name="Pfad 23"
     id="Pfad_23"
     style="stroke-width:0.917209" /><path
     d="m 804.59035,192.67439 h -8.25488 v 33.38641 h 7.97972 c 13.29953,0 19.16967,-7.42939 19.16967,-17.06009 0,-9.72241 -5.77842,-16.32632 -18.89451,-16.32632 z m 0.0917,29.62586 h -3.85228 v -25.95702 h 3.57711 c 9.72242,0 14.30846,3.944 14.30846,12.65748 0,8.71349 -4.76948,13.29954 -14.03329,13.29954 z"
     data-name="Pfad 24"
     id="Pfad_24"
     style="stroke-width:0.917209" /><path
     d="m 731.12191,192.03235 c -10.45618,0 -16.50976,8.16316 -16.50976,17.33525 0,9.08037 6.1453,17.24353 16.60148,17.24353 10.45619,0 16.50976,-8.16316 16.50976,-17.33525 0,-9.17209 -6.1453,-17.24353 -16.60148,-17.24353 z m 0,30.81822 c -7.70455,0 -11.74027,-6.32874 -11.74027,-13.57469 0,-7.24595 4.12744,-13.48298 11.83199,-13.48298 7.70456,0 11.64856,6.32875 11.64856,13.5747 0.0917,7.24595 -4.03572,13.48297 -11.74028,13.48297 z"
     data-name="Pfad 25"
     id="Pfad_25"
     style="stroke-width:0.917209" /><path
     d="m 772.48804,192.67439 -12.74921,33.38641 h 4.49433 l 2.84335,-7.888 h 14.85878 l 2.93507,7.888 h 4.95293 l -12.84093,-33.38641 z m -3.944,21.73786 4.03572,-10.73135 c 0.91721,-2.56818 1.46753,-4.21916 1.92614,-5.77841 h 0.0917 c 0.4586,1.37581 0.91721,2.93506 2.01786,5.77841 l 3.944,10.73135 z"
     data-name="Pfad 26"
     id="Pfad_26"
     style="stroke-width:0.917209" /><path
     d="m 886.22196,222.20852 v -11.92371 h 11.46511 v -3.76056 h -11.46511 v -10.0893 h 13.11609 v -3.76056 h -17.61042 v 33.29469 h 17.9773 v -3.76056 z"
     data-name="Pfad 27"
     id="Pfad_27"
     style="stroke-width:0.917209" /><path
     d="m 860.90699,212.0275 h 6.97079 v 8.80521 c -1.55926,1.19237 -4.31088,1.92614 -7.79628,1.92614 -8.3466,0 -12.10716,-6.60391 -12.10716,-13.66641 0,-6.97079 3.85228,-13.29954 12.19888,-13.29954 a 12.580439,12.580439 0 0 1 8.43832,2.65991 l 2.29303,-3.39367 c -2.65991,-2.01786 -6.05358,-3.11851 -10.54791,-3.11851 -10.91478,0 -17.06008,8.07144 -17.06008,17.15181 0,8.98864 6.05358,17.33525 16.78492,17.33525 5.6867,0 9.90586,-1.37582 12.38232,-3.39368 v -14.85878 h -11.46511 v 3.85227 z"
     data-name="Pfad 28"
     id="Pfad_28"
     style="stroke-width:0.917209" /><path
     d="m 392.94694,102.32931 v 34.57877 l -15.22567,-34.57877 h -6.05358 l 19.99516,45.40184 H 282.14809 l 41.82473,-45.40184 h -7.52111 l -40.3572,43.93431 -43.93431,-43.93431 h -7.79628 l 50.9051,50.99682 H 398.4502 v -50.99682 z"
     data-name="Pfad 29"
     fill="#732a83"
     id="Pfad_29"
     style="stroke-width:0.917209;fill:#000000;fill-opacity:1" /><path
     d="m 218.21862,102.32931 v 45.40184 h -90.34509 l 11.28167,-45.40184 h -5.68669 l -6.42047,25.68185 v -25.68185 h -5.50325 v 50.99682 h 102.17709 v -50.99682 z"
     data-name="Pfad 30"
     fill="#732a83"
     id="Pfad_30"
     style="stroke-width:0.917209;fill:#000000;fill-opacity:1" /><path
     d="m 896.40298,139.75143 -21.18753,-37.42212 h -6.32874 l 25.68185,45.40184 h -105.7542 l 27.33283,-45.40184 H 809.635 l -23.02194,38.24761 v -38.24761 h -5.50326 v 50.99682 h 120.79643 v -50.99682 h -5.50325 z"
     data-name="Pfad 31"
     fill="#732a83"
     id="Pfad_31"
     style="stroke-width:0.917209;fill:#000000;fill-opacity:1" /><path
     d="m 639.03412,145.07125 9.1721,-42.74194 h -5.6867 l -9.72242,45.40184 h -82.0902 l 56.95868,-45.40184 h -8.89693 l -52.1892,41.73301 -6.51218,-41.73301 h -5.59497 l 6.51218,42.09989 -57.96761,-42.09989 h -9.35553 l 70.16649,50.99682 h 93.18843 l 70.1665,-50.99682 h -9.35554 z"
     data-name="Pfad 32"
     fill="#732a83"
     id="Pfad_32"
     style="stroke-width:0.917209;fill:#000000;fill-opacity:1" /><path
     d="m 361.67011,54.450997 h -10.91478 l 3.02679,7.15423 -37.33041,40.724083 h 7.52111 l 32.19404,-35.129103 15.50083,35.129103 h 6.05358 L 360.11086,62.522437 Z"
     data-name="Pfad 33"
     fill="#405fac"
     id="Pfad_33"
     style="stroke-width:0.917209;fill:#000000;fill-opacity:1" /><path
     d="m 726.81103,54.450997 h -5.77842 l -12.38232,38.1559 -50.9051,-31.18511 2.75163,-6.97079 h -5.96186 l -0.64205,1.65098 -0.91721,-1.65098 h -6.32874 l 1.46753,2.56819 -6.42046,-2.56819 h -14.85879 l 21.18753,8.53005 -49.25412,39.348263 h 8.89693 l 42.00817,-33.569853 -7.15423,33.569853 h 5.6867 l 7.61283,-35.587713 49.34585,30.17618 -7.33768,5.411533 h 9.35554 l 5.31981,-3.852273 z"
     data-name="Pfad 34"
     fill="#405fac"
     id="Pfad_34"
     style="stroke-width:0.917209;fill:#000000;fill-opacity:1" /><path
     d="m 398.4502,54.450997 h -5.50326 v 47.878313 h 5.50326 z"
     data-name="Pfad 35"
     fill="#405fac"
     id="Pfad_35"
     style="stroke-width:0.917209;fill:#000000;fill-opacity:1" /><path
     d="m 830.08877,54.450997 -43.47571,19.07795 v -19.07795 h -5.50326 v 47.878313 h 5.50326 V 79.582527 L 836.50923,57.752957 809.635,102.32931 h 6.51219 l 27.14939,-45.126683 25.59013,45.126683 h 6.32874 L 848.06606,54.450997 Z"
     data-name="Pfad 36"
     fill="#405fac"
     id="Pfad_36"
     style="stroke-width:0.917209;fill:#000000;fill-opacity:1" /><path
     d="m 473.01929,95.083357 -13.20781,-40.63236 h -5.77842 l 14.30846,44.02604 5.31982,3.852273 h 9.35553 z"
     data-name="Pfad 37"
     fill="#405fac"
     id="Pfad_37"
     style="stroke-width:0.917209;fill:#000000;fill-opacity:1" /><path
     d="m 145.39222,54.450997 -11.92371,47.878313 h 5.68669 l 11.92372,-47.878313 z"
     data-name="Pfad 38"
     fill="#405fac"
     id="Pfad_38"
     style="stroke-width:0.917209;fill:#000000;fill-opacity:1" /><path
     d="m 527.0429,54.450997 7.4294,47.878313 h 5.59497 l -7.42939,-47.878313 z"
     data-name="Pfad 39"
     fill="#405fac"
     id="Pfad_39"
     style="stroke-width:0.917209;fill:#000000;fill-opacity:1" /><path
     d="m 127.04804,54.450997 h -5.50325 v 47.878313 h 5.50325 z"
     data-name="Pfad 40"
     fill="#405fac"
     id="Pfad_40"
     style="stroke-width:0.917209;fill:#000000;fill-opacity:1" /><path
     d="m 242.61638,54.450997 h -6.05358 l -15.86771,36.13804 -21.37097,-36.13804 h -6.42047 l 25.31497,42.65022 v 5.228093 h 5.50326 v -0.64204 l 0.64204,0.64204 h 7.79628 l -7.33767,-7.337673 z"
     data-name="Pfad 41"
     fill="#405fac"
     id="Pfad_41"
     style="stroke-width:0.917209;fill:#000000;fill-opacity:1" /><path
     d="m 901.90623,54.450997 h -5.50325 v 47.878313 h 5.50325 z"
     data-name="Pfad 42"
     fill="#405fac"
     id="Pfad_42"
     style="stroke-width:0.917209;fill:#000000;fill-opacity:1" /><path
     d="m 740.294,6.6644061 h -5.77842 l 1.00893,3.1185101 -14.4919,44.6680808 h 5.77842 l 14.4919,-44.6680808 z"
     data-name="Pfad 43"
     fill="#108140"
     id="Pfad_43"
     style="stroke-width:0.917209;fill:#000000;fill-opacity:1" /><path
     d="M 786.61306,6.6644061 H 781.1098 V 54.542717 h 5.50326 z"
     data-name="Pfad 44"
     fill="#108140"
     id="Pfad_44"
     style="stroke-width:0.917209;fill:#000000;fill-opacity:1" /><path
     d="M 157.31594,6.6644061 145.39222,54.450997 h 5.6867 L 163.00264,6.6644061 Z"
     data-name="Pfad 45"
     fill="#108140"
     id="Pfad_45"
     style="stroke-width:0.917209;fill:#000000;fill-opacity:1" /><path
     d="m 164.65361,6.6644061 28.25004,47.7865909 h 6.42047 L 171.07408,6.6644061 Z"
     data-name="Pfad 46"
     fill="#108140"
     id="Pfad_46"
     style="stroke-width:0.917209;fill:#000000;fill-opacity:1" /><path
     d="M 257.65861,6.6644061 236.5628,54.450997 h 6.05358 L 263.71219,6.6644061 Z"
     data-name="Pfad 47"
     fill="#108140"
     id="Pfad_47"
     style="stroke-width:0.917209;fill:#000000;fill-opacity:1" /><path
     d="m 127.04804,6.6644061 h -5.50325 V 54.542717 h 5.50325 z"
     data-name="Pfad 48"
     fill="#108140"
     id="Pfad_48"
     style="stroke-width:0.917209;fill:#000000;fill-opacity:1" /><path
     d="m 619.40585,6.6644061 27.24111,47.7865909 h 6.32874 L 625.73459,6.6644061 Z"
     data-name="Pfad 49"
     fill="#108140"
     id="Pfad_49"
     style="stroke-width:0.917209;fill:#000000;fill-opacity:1" /><path
     d="m 526.49258,6.6644061 h -5.59498 v 0.36689 h -74.66081 l 0.0917,-0.36689 h -5.77842 l -1.00893,3.1185101 14.4919,44.6680808 h 5.77842 L 446.23679,12.534546 h 74.29393 l 6.51218,41.916451 h 5.59498 l -6.23702,-40.173751 100.43438,40.173751 h 14.85879 L 526.30913,8.2236659 Z"
     data-name="Pfad 50"
     fill="#108140"
     id="Pfad_50"
     style="stroke-width:0.917209;fill:#000000;fill-opacity:1" /><path
     d="m 398.4502,6.6644061 h -5.50326 V 54.542717 h 5.50326 z"
     data-name="Pfad 51"
     fill="#108140"
     id="Pfad_51"
     style="stroke-width:0.917209;fill:#000000;fill-opacity:1" /><path
     d="M 365.43067,6.6644061 356.25858,53.350347 335.98826,6.6644061 h -6.05358 l 20.82065,47.7865909 h 10.91478 l 9.44726,-47.7865909 z"
     data-name="Pfad 52"
     fill="#108140"
     id="Pfad_52"
     style="stroke-width:0.917209;fill:#000000;fill-opacity:1" /><path
     d="M 896.40298,23.724497 889.70735,6.6644061 h -5.87014 l 12.56577,32.1940409 v 15.59255 h 5.50325 V 6.6644061 h -5.50325 z"
     data-name="Pfad 53"
     fill="#108140"
     id="Pfad_53"
     style="stroke-width:0.917209;fill:#000000;fill-opacity:1" /><path
     d="m 830.08877,54.450997 h 17.97729 l -1.74269,-3.21023 9.90585,-44.5763609 h -5.68669 l -9.6307,43.1088309 z"
     data-name="Pfad 54"
     fill="#108140"
     id="Pfad_54"
     style="stroke-width:0.917209;fill:#000000;fill-opacity:1" /><path
     d="M 673.70463,6.6644061 654.53496,54.450997 h 5.96186 L 679.66648,6.6644061 Z"
     data-name="Pfad 55"
     fill="#108140"
     id="Pfad_55"
     style="stroke-width:0.917209;fill:#000000;fill-opacity:1" /><path
     d="m 127.04804,-41.213903 h -5.50325 V 6.6644061 h 5.50325 z"
     data-name="Pfad 56"
     fill="#fdec09"
     id="Pfad_56"
     style="stroke-width:0.917209;fill:#000000;fill-opacity:1" /><path
     d="M 861.18215,-41.213903 850.54253,6.6644061 h 5.68669 l 9.99758,-45.0349591 17.61041,45.0349591 h 5.87014 L 871.08801,-41.213903 Z"
     data-name="Pfad 57"
     fill="#fdec09"
     id="Pfad_57"
     style="stroke-width:0.917209;fill:#000000;fill-opacity:1" /><path
     d="m 163.46124,4.6465461 1.19237,2.01786 h 6.42047 l -5.41154,-9.17209 23.84744,-38.7062191 h -6.51218 l -19.72,31.9188801 -9.35553,-31.9188801 h -5.77842 l 11.37339,38.7062191 -2.2013,9.17209 h 5.6867 z"
     data-name="Pfad 58"
     fill="#fdec09"
     id="Pfad_58"
     style="stroke-width:0.917209;fill:#000000;fill-opacity:1" /><path
     d="M 263.71219,6.6644061 284.71628,-41.213903 H 278.6627 L 257.65861,6.6644061 Z"
     data-name="Pfad 59"
     fill="#fdec09"
     id="Pfad_59"
     style="stroke-width:0.917209;fill:#000000;fill-opacity:1" /><path
     d="m 901.90623,-41.213903 h -5.50325 V 6.6644061 h 5.50325 z"
     data-name="Pfad 60"
     fill="#fdec09"
     id="Pfad_60"
     style="stroke-width:0.917209;fill:#000000;fill-opacity:1" /><path
     d="m 625.73459,6.6644061 -27.2411,-47.8783091 h -6.32875 l 27.24111,47.8783091 z"
     data-name="Pfad 61"
     fill="#fdec09"
     id="Pfad_61"
     style="stroke-width:0.917209;fill:#000000;fill-opacity:1" /><path
     d="m 446.32851,6.6644061 15.59255,-47.8783091 h -5.87014 L 440.55009,6.6644061 Z"
     data-name="Pfad 62"
     fill="#fdec09"
     id="Pfad_62"
     style="stroke-width:0.917209;fill:#000000;fill-opacity:1" /><path
     d="M 786.61306,-41.213903 H 781.1098 V 6.6644061 h 5.50326 z"
     data-name="Pfad 63"
     fill="#fdec09"
     id="Pfad_63"
     style="stroke-width:0.917209;fill:#000000;fill-opacity:1" /><path
     d="m 533.64681,-41.213903 h -5.59498 L 520.8976,6.6644061 h 5.59498 z"
     data-name="Pfad 64"
     fill="#fdec09"
     id="Pfad_64"
     style="stroke-width:0.917209;fill:#000000;fill-opacity:1" /><path
     d="m 398.4502,-41.213903 h -5.50326 V 6.6644061 h 5.50326 z"
     data-name="Pfad 65"
     fill="#fdec09"
     id="Pfad_65"
     style="stroke-width:0.917209;fill:#000000;fill-opacity:1" /><path
     d="m 380.4729,-41.213903 h -5.6867 l -9.35553,47.8783091 h 5.6867 z"
     data-name="Pfad 66"
     fill="#fdec09"
     id="Pfad_66"
     style="stroke-width:0.917209;fill:#000000;fill-opacity:1" /><path
     d="m 679.66648,6.6644061 19.07795,-47.8783091 h -5.96186 L 673.70463,6.6644061 Z"
     data-name="Pfad 67"
     fill="#fdec09"
     id="Pfad_67"
     style="stroke-width:0.917209;fill:#000000;fill-opacity:1" /><path
     d="M 740.294,6.6644061 724.79317,-41.213903 h -5.87014 l 15.59255,47.8783091 z"
     data-name="Pfad 68"
     fill="#fdec09"
     id="Pfad_68"
     style="stroke-width:0.917209;fill:#000000;fill-opacity:1" /><path
     d="M 335.98826,6.6644061 315.25934,-41.213903 h -6.05358 l 20.72892,47.8783091 z"
     data-name="Pfad 69"
     fill="#fdec09"
     id="Pfad_69"
     style="stroke-width:0.917209;fill:#000000;fill-opacity:1" /><path
     d="m 533.64681,-41.213903 7.06251,-47.878316 h -5.59498 l -7.06251,47.878316 z"
     data-name="Pfad 70"
     fill="#f78c1e"
     id="Pfad_70"
     style="stroke-width:0.917209;fill:#000000;fill-opacity:1" /><path
     d="m 598.49349,-41.213903 -27.24111,-47.878316 h -6.42047 l 27.33283,47.878316 z"
     data-name="Pfad 71"
     fill="#f78c1e"
     id="Pfad_71"
     style="stroke-width:0.917209;fill:#000000;fill-opacity:1" /><path
     d="m 901.90623,-89.092219 h -5.50325 v 47.878316 h 5.50325 z"
     data-name="Pfad 72"
     fill="#f78c1e"
     id="Pfad_72"
     style="stroke-width:0.917209;fill:#000000;fill-opacity:1" /><path
     d="m 189.50998,-41.213903 29.53412,-47.878316 h -6.51217 l -29.53414,47.878316 z"
     data-name="Pfad 73"
     fill="#f78c1e"
     id="Pfad_73"
     style="stroke-width:0.917209;fill:#000000;fill-opacity:1" /><path
     d="m 127.04804,-89.092219 h -5.50325 v 47.878316 h 5.50325 z"
     data-name="Pfad 74"
     fill="#f78c1e"
     id="Pfad_74"
     style="stroke-width:0.917209;fill:#000000;fill-opacity:1" /><path
     d="m 861.18215,-41.213903 h 9.90586 l -2.65991,-6.69563 16.2346,-41.182686 h -5.96186 l -14.21674,36.229756 -35.58771,-36.229756 h -7.70455 l 41.2744,42.099896 z"
     data-name="Pfad 75"
     fill="#f78c1e"
     id="Pfad_75"
     style="stroke-width:0.917209;fill:#000000;fill-opacity:1" /><path
     d="m 706.81587,-76.251293 -14.0333,35.03739 h 5.96186 l 11.18995,-27.88315 8.98865,27.88315 h 5.87014 l -12.01544,-36.8718 -0.27516,-0.82549 -13.84986,-10.181026 h -9.44725 z"
     data-name="Pfad 76"
     fill="#f78c1e"
     id="Pfad_76"
     style="stroke-width:0.917209;fill:#000000;fill-opacity:1" /><path
     d="m 153.92227,-41.213903 -14.0333,-47.878316 h -5.77842 l 14.0333,47.878316 z"
     data-name="Pfad 77"
     fill="#f78c1e"
     id="Pfad_77"
     style="stroke-width:0.917209;fill:#000000;fill-opacity:1" /><path
     d="m 786.61306,-89.092219 h -5.50326 v 47.878316 h 5.50326 z"
     data-name="Pfad 78"
     fill="#f78c1e"
     id="Pfad_78"
     style="stroke-width:0.917209;fill:#000000;fill-opacity:1" /><path
     d="m 398.4502,-89.092219 h -5.50326 v 47.878316 h 5.50326 z"
     data-name="Pfad 79"
     fill="#f78c1e"
     id="Pfad_79"
     style="stroke-width:0.917209;fill:#000000;fill-opacity:1" /><path
     d="m 380.4729,-41.213903 9.35553,-47.878316 h -5.59497 l -9.44726,47.878316 z"
     data-name="Pfad 80"
     fill="#f78c1e"
     id="Pfad_80"
     style="stroke-width:0.917209;fill:#000000;fill-opacity:1" /><path
     d="m 293.6132,-75.242363 -14.9505,34.02846 h 6.05358 l 12.2906,-28.0666 12.19888,28.0666 h 6.05358 l -15.50084,-35.58771 v -12.290606 h -5.50325 v 6.695626 l -6.69563,-6.695626 h -7.79627 z"
     data-name="Pfad 81"
     fill="#f78c1e"
     id="Pfad_81"
     style="stroke-width:0.917209;fill:#000000;fill-opacity:1" /><path
     d="m 456.05092,-41.213903 h 5.87014 l 11.09823,-34.30362 18.61934,-13.574696 h -9.44725 l -13.84986,10.181026 z"
     data-name="Pfad 82"
     fill="#f78c1e"
     id="Pfad_82"
     style="stroke-width:0.917209;fill:#000000;fill-opacity:1" /><path
     d="m 781.1098,-89.092219 h 5.50326 v -35.129111 l 34.57878,35.129111 h 7.70455 l -38.43105,-39.164831 h 103.64462 l -15.40912,39.164831 h 5.96186 l 11.74028,-29.901021 v 29.901021 h 5.50325 V -133.7603 H 781.1098 Z"
     data-name="Pfad 83"
     fill="#e31e26"
     id="Pfad_83"
     style="stroke-width:0.917209;fill:#000000;fill-opacity:1" /><path
     d="m 299.7585,-128.25705 h 92.17951 l -7.70455,39.164831 h 5.59497 l 3.11851,-15.684281 v 15.684281 h 5.50326 V -133.7603 H 294.25525 v 44.668081 h 5.50325 z"
     data-name="Pfad 84"
     fill="#e31e26"
     id="Pfad_84"
     style="stroke-width:0.917209;fill:#000000;fill-opacity:1" /><path
     d="m 540.43415,-124.49649 -5.31981,35.404271 h 5.59498 l 5.04465,-33.478131 19.07794,33.478131 h 6.42047 l -22.3799,-39.164831 h 86.40109 l 53.93189,39.164831 h 9.44725 L 637.01626,-133.7603 h -93.18843 l -61.63645,44.668081 h 9.44725 z"
     data-name="Pfad 85"
     fill="#e31e26"
     id="Pfad_85"
     style="stroke-width:0.917209;fill:#000000;fill-opacity:1" /><path
     d="m 127.04804,-112.93966 7.06251,23.847441 h 5.77842 l -11.55683,-39.164831 h 108.4141 l -24.21431,39.164831 h 6.51217 l 23.11368,-37.513851 37.60557,37.513851 h 7.79627 L 242.89154,-133.7603 H 121.54479 v 44.668081 h 5.50325 z"
     data-name="Pfad 86"
     fill="#e31e26"
     id="Pfad_86"
     style="stroke-width:0.917209;fill:#000000;fill-opacity:1" /><use
     x="0"
     y="0"
     xlink:href="#Pfad_1"
     id="use927" /><use
     x="0"
     y="0"
     xlink:href="#Pfad_2"
     id="use929" /><use
     x="0"
     y="0"
     xlink:href="#Pfad_3"
     id="use931" /><use
     x="0"
     y="0"
     xlink:href="#Pfad_4"
     id="use933" /><use
     x="0"
     y="0"
     xlink:href="#Pfad_5"
     id="use935" /><use
     x="0"
     y="0"
     xlink:href="#Pfad_6"
     id="use937" /><use
     x="0"
     y="0"
     xlink:href="#Pfad_7"
     id="use939" /><use
     x="0"
     y="0"
     xlink:href="#Pfad_8"
     id="use941" /><use
     x="0"
     y="0"
     xlink:href="#Pfad_9"
     id="use943" /><use
     x="0"
     y="0"
     xlink:href="#Pfad_10"
     id="use945" /><use
     x="0"
     y="0"
     xlink:href="#Pfad_11"
     id="use947" /><use
     x="0"
     y="0"
     xlink:href="#Pfad_12"
     id="use949" /><use
     x="0"
     y="0"
     xlink:href="#Pfad_13"
     id="use951" /><use
     x="0"
     y="0"
     xlink:href="#Pfad_14"
     id="use953" /><use
     x="0"
     y="0"
     xlink:href="#Pfad_15"
     id="use955" /><use
     x="0"
     y="0"
     xlink:href="#Pfad_16"
     id="use957" /><use
     x="0"
     y="0"
     xlink:href="#Pfad_17"
     id="use959" /><use
     x="0"
     y="0"
     xlink:href="#Pfad_18"
     id="use961" /><use
     x="0"
     y="0"
     xlink:href="#Pfad_19"
     id="use963" /><use
     x="0"
     y="0"
     xlink:href="#Pfad_20"
     id="use965" /><use
     x="0"
     y="0"
     xlink:href="#Pfad_21"
     id="use967" /><use
     x="0"
     y="0"
     xlink:href="#Pfad_22"
     id="use969" /><use
     x="0"
     y="0"
     xlink:href="#Pfad_23"
     id="use971" /><use
     x="0"
     y="0"
     xlink:href="#Pfad_24"
     id="use973" /><use
     x="0"
     y="0"
     xlink:href="#Pfad_25"
     id="use975" /><use
     x="0"
     y="0"
     xlink:href="#Pfad_26"
     id="use977" /><use
     x="0"
     y="0"
     xlink:href="#Pfad_27"
     id="use979" /><use
     x="0"
     y="0"
     xlink:href="#Pfad_28"
     id="use981" /><use
     x="0"
     y="0"
     xlink:href="#Pfad_29"
     id="use983"
     style="fill:#000000;fill-opacity:1" /><use
     x="0"
     y="0"
     xlink:href="#Pfad_30"
     id="use985"
     style="fill:#000000;fill-opacity:1" /><use
     x="0"
     y="0"
     xlink:href="#Pfad_31"
     id="use987"
     style="fill:#000000;fill-opacity:1" /><use
     x="0"
     y="0"
     xlink:href="#Pfad_32"
     id="use989"
     style="fill:#000000;fill-opacity:1" /><use
     x="0"
     y="0"
     xlink:href="#Pfad_33"
     id="use991"
     style="fill:#000000;fill-opacity:1" /><use
     x="0"
     y="0"
     xlink:href="#Pfad_34"
     id="use993"
     style="fill:#000000;fill-opacity:1" /><use
     x="0"
     y="0"
     xlink:href="#Pfad_35"
     id="use995"
     style="fill:#000000;fill-opacity:1" /><use
     x="0"
     y="0"
     xlink:href="#Pfad_36"
     id="use997"
     style="fill:#000000;fill-opacity:1" /><use
     x="0"
     y="0"
     xlink:href="#Pfad_37"
     id="use999"
     style="fill:#000000;fill-opacity:1" /><use
     x="0"
     y="0"
     xlink:href="#Pfad_38"
     id="use1001"
     style="fill:#000000;fill-opacity:1" /><use
     x="0"
     y="0"
     xlink:href="#Pfad_39"
     id="use1003"
     style="fill:#000000;fill-opacity:1" /><use
     x="0"
     y="0"
     xlink:href="#Pfad_40"
     id="use1005"
     style="fill:#000000;fill-opacity:1" /><use
     x="0"
     y="0"
     xlink:href="#Pfad_41"
     id="use1007"
     style="fill:#000000;fill-opacity:1" /><use
     x="0"
     y="0"
     xlink:href="#Pfad_42"
     id="use1009"
     style="fill:#000000;fill-opacity:1" /><use
     x="0"
     y="0"
     xlink:href="#Pfad_43"
     id="use1011"
     style="fill:#000000;fill-opacity:1" /><use
     x="0"
     y="0"
     xlink:href="#Pfad_44"
     id="use1013"
     style="fill:#000000;fill-opacity:1" /><use
     x="0"
     y="0"
     xlink:href="#Pfad_45"
     id="use1015"
     style="fill:#000000;fill-opacity:1" /><use
     x="0"
     y="0"
     xlink:href="#Pfad_46"
     id="use1017"
     style="fill:#000000;fill-opacity:1" /><use
     x="0"
     y="0"
     xlink:href="#Pfad_47"
     id="use1019"
     style="fill:#000000;fill-opacity:1" /><use
     x="0"
     y="0"
     xlink:href="#Pfad_48"
     id="use1021"
     style="fill:#000000;fill-opacity:1" /><use
     x="0"
     y="0"
     xlink:href="#Pfad_49"
     id="use1023"
     style="fill:#000000;fill-opacity:1" /><use
     x="0"
     y="0"
     xlink:href="#Pfad_50"
     id="use1025"
     style="fill:#000000;fill-opacity:1" /><use
     x="0"
     y="0"
     xlink:href="#Pfad_51"
     id="use1027"
     style="fill:#000000;fill-opacity:1" /><use
     x="0"
     y="0"
     xlink:href="#Pfad_52"
     id="use1029"
     style="fill:#000000;fill-opacity:1" /><use
     x="0"
     y="0"
     xlink:href="#Pfad_53"
     id="use1031"
     style="fill:#000000;fill-opacity:1" /><use
     x="0"
     y="0"
     xlink:href="#Pfad_54"
     id="use1033"
     style="fill:#000000;fill-opacity:1" /><use
     x="0"
     y="0"
     xlink:href="#Pfad_55"
     id="use1035"
     style="fill:#000000;fill-opacity:1" /><use
     x="0"
     y="0"
     xlink:href="#Pfad_56"
     id="use1037"
     style="fill:#000000;fill-opacity:1" /><use
     x="0"
     y="0"
     xlink:href="#Pfad_57"
     id="use1039"
     style="fill:#000000;fill-opacity:1" /><use
     x="0"
     y="0"
     xlink:href="#Pfad_58"
     id="use1041"
     style="fill:#000000;fill-opacity:1" /><use
     x="0"
     y="0"
     xlink:href="#Pfad_59"
     id="use1043"
     style="fill:#000000;fill-opacity:1" /><use
     x="0"
     y="0"
     xlink:href="#Pfad_60"
     id="use1045"
     style="fill:#000000;fill-opacity:1" /><use
     x="0"
     y="0"
     xlink:href="#Pfad_61"
     id="use1047"
     style="fill:#000000;fill-opacity:1" /><use
     x="0"
     y="0"
     xlink:href="#Pfad_62"
     id="use1049"
     style="fill:#000000;fill-opacity:1" /><use
     x="0"
     y="0"
     xlink:href="#Pfad_63"
     id="use1051"
     style="fill:#000000;fill-opacity:1" /><use
     x="0"
     y="0"
     xlink:href="#Pfad_64"
     id="use1053"
     style="fill:#000000;fill-opacity:1" /><use
     x="0"
     y="0"
     xlink:href="#Pfad_65"
     id="use1055"
     style="fill:#000000;fill-opacity:1" /><use
     x="0"
     y="0"
     xlink:href="#Pfad_66"
     id="use1057"
     style="fill:#000000;fill-opacity:1" /><use
     x="0"
     y="0"
     xlink:href="#Pfad_67"
     id="use1059"
     style="fill:#000000;fill-opacity:1" /><use
     x="0"
     y="0"
     xlink:href="#Pfad_68"
     id="use1061"
     style="fill:#000000;fill-opacity:1" /><use
     x="0"
     y="0"
     xlink:href="#Pfad_69"
     id="use1063"
     style="fill:#000000;fill-opacity:1" /><use
     x="0"
     y="0"
     xlink:href="#Pfad_70"
     id="use1065"
     style="fill:#000000;fill-opacity:1" /><use
     x="0"
     y="0"
     xlink:href="#Pfad_71"
     id="use1067"
     style="fill:#000000;fill-opacity:1" /><use
     x="0"
     y="0"
     xlink:href="#Pfad_72"
     id="use1069"
     style="fill:#000000;fill-opacity:1" /><use
     x="0"
     y="0"
     xlink:href="#Pfad_73"
     id="use1071"
     style="fill:#000000;fill-opacity:1" /><use
     x="0"
     y="0"
     xlink:href="#Pfad_74"
     id="use1073"
     style="fill:#000000;fill-opacity:1" /><use
     x="0"
     y="0"
     xlink:href="#Pfad_75"
     id="use1075"
     style="fill:#000000;fill-opacity:1" /><use
     x="0"
     y="0"
     xlink:href="#Pfad_76"
     id="use1077"
     style="fill:#000000;fill-opacity:1" /><use
     x="0"
     y="0"
     xlink:href="#Pfad_77"
     id="use1079"
     style="fill:#000000;fill-opacity:1" /><use
     x="0"
     y="0"
     xlink:href="#Pfad_78"
     id="use1081"
     style="fill:#000000;fill-opacity:1" /><use
     x="0"
     y="0"
     xlink:href="#Pfad_79"
     id="use1083"
     style="fill:#000000;fill-opacity:1" /><use
     x="0"
     y="0"
     xlink:href="#Pfad_80"
     id="use1085"
     style="fill:#000000;fill-opacity:1" /><use
     x="0"
     y="0"
     xlink:href="#Pfad_81"
     id="use1087"
     style="fill:#000000;fill-opacity:1" /><use
     x="0"
     y="0"
     xlink:href="#Pfad_82"
     id="use1089"
     style="fill:#000000;fill-opacity:1" /><use
     x="0"
     y="0"
     xlink:href="#Pfad_83"
     id="use1091"
     style="fill:#000000;fill-opacity:1" /><use
     x="0"
     y="0"
     xlink:href="#Pfad_84"
     id="use1093"
     style="fill:#000000;fill-opacity:1" /><use
     x="0"
     y="0"
     xlink:href="#Pfad_85"
     id="use1095"
     style="fill:#000000;fill-opacity:1" /><use
     x="0"
     y="0"
     xlink:href="#Pfad_86"
     id="use1097"
     style="fill:#000000;fill-opacity:1" /></svg>
