<?xml version="1.0" encoding="UTF-8" standalone="no"?>
<svg
   id="noi-logo-pride"
   viewBox="0 0 1737.5629 360.4632"
   width="280"
   version="1.1"
   sodipodi:docname="noi-logo-pride.svg"
   inkscape:version="1.2.2 (732a01da63, 2022-12-09)"
   xmlns:inkscape="http://www.inkscape.org/namespaces/inkscape"
   xmlns:sodipodi="http://sodipodi.sourceforge.net/DTD/sodipodi-0.dtd"
   xmlns="http://www.w3.org/2000/svg"
   xmlns:svg="http://www.w3.org/2000/svg">
  <defs
     id="defs383" />
  <sodipodi:namedview
     id="namedview381"
     pagecolor="#505050"
     bordercolor="#eeeeee"
     borderopacity="1"
     inkscape:showpageshadow="0"
     inkscape:pageopacity="0"
     inkscape:pagecheckerboard="false"
     inkscape:deskcolor="#505050"
     showgrid="true"
     inkscape:zoom="1.2892277"
     inkscape:cx="1304.6571"
     inkscape:cy="173.74743"
     inkscape:window-width="1680"
     inkscape:window-height="987"
     inkscape:window-x="-8"
     inkscape:window-y="17"
     inkscape:window-maximized="1"
     inkscape:current-layer="noi-logo-pride">
    <inkscape:grid
       type="xygrid"
       id="grid741"
       dotted="false"
       originx="2055.5383"
       originy="-16.268425"
       empspacing="4"
       enabled="true" />
  </sodipodi:namedview>
  <path
     d="M 35.220827,344.04511 H 46.68594 v -3.76056 H 35.220827 v -10.0893 h 13.024368 v -3.76056 H 30.726503 v 33.29469 h 17.885576 v -3.76056 H 35.220827 Z"
     data-name="Pfad 1"
     id="Pfad_1"
     style="stroke-width:0.917209" />
  <path
     d="m 236.0896,326.43469 h -5.22809 l -13.11609,15.86772 v -15.86772 h -4.49432 v 33.29469 h 4.49432 v -17.24353 l 13.5747,17.24353 h 5.59497 l -14.12502,-17.70213 z"
     data-name="Pfad 2"
     id="Pfad_2"
     style="stroke-width:0.917209" />
  <path
     d="m 349.45664,330.19525 h 9.44725 v 29.53413 h 4.49433 v -29.53413 h 9.44725 v -3.76056 h -23.38883 z"
     data-name="Pfad 3"
     id="Pfad_3"
     style="stroke-width:0.917209" />
  <path
     d="m 384.03542,326.43469 h -4.58604 v 33.38641 h 4.58604 z"
     data-name="Pfad 4"
     id="Pfad_4"
     style="stroke-width:0.917209" />
  <path
     d="m 714.13895,326.43469 h -4.58604 v 33.38641 h 4.58604 z"
     data-name="Pfad 5"
     id="Pfad_5"
     style="stroke-width:0.917209" />
  <path
     d="m 567.84411,330.19525 h 9.35553 v 29.53413 h 4.58605 v -29.53413 h 9.44725 v -3.76056 h -23.38883 z"
     data-name="Pfad 6"
     id="Pfad_6"
     style="stroke-width:0.917209" />
  <path
     d="M 0.27516271,330.19525 H 9.6306948 v 29.53413 H 14.21674 v -29.53413 h 9.447253 v -3.76056 H 0.27516271 Z"
     data-name="Pfad 7"
     id="Pfad_7"
     style="stroke-width:0.917209" />
  <path
     d="M 110.89057,340.28455 H 92.821554 V 326.43469 H 88.32723 v 33.29469 h 4.494324 v -15.59255 h 18.069016 v 15.59255 h 4.58605 v -33.29469 h -4.58605 z"
     data-name="Pfad 8"
     id="Pfad_8"
     style="stroke-width:0.917209" />
  <path
     d="m 70.900258,356.51915 c -7.979719,0 -11.740276,-6.60391 -11.740276,-13.66641 0,-6.97079 3.943999,-13.29954 11.648555,-13.29954 a 11.840251,11.840251 0 0 1 7.337672,2.20131 l 2.201302,-3.39368 a 16.509763,16.509763 0 0 0 -9.447253,-2.56818 c -10.456183,0 -16.509763,8.16316 -16.509763,17.15181 0,8.98864 5.870138,17.33525 16.418042,17.33525 a 16.012635,16.012635 0 0 0 10.18102,-3.39368 l -2.01786,-3.21023 a 11.903539,11.903539 0 0 1 -8.071439,2.84335 z"
     data-name="Pfad 9"
     id="Pfad_9"
     style="stroke-width:0.917209" />
  <path
     d="m 134.92145,326.43469 h -8.89693 v 33.38641 h 4.58605 v -13.20781 h 3.66883 c 7.888,0 12.56577,-3.66883 12.56577,-10.36446 0,-6.6039 -5.13637,-9.81414 -11.92372,-9.81414 z m -0.55033,16.41805 h -3.76055 v -12.74921 h 3.94399 c 5.59498,0 7.70456,2.47646 7.70456,6.23702 0,4.31088 -2.38474,6.51219 -7.888,6.51219 z"
     data-name="Pfad 10"
     id="Pfad_10"
     style="stroke-width:0.917209" />
  <path
     d="m 160.51158,326.43469 -12.74921,33.38641 h 4.49433 l 2.84335,-7.888 h 14.85878 l 2.93507,7.888 h 4.95293 L 165.0059,326.43469 Z m -3.944,21.73786 4.03572,-10.73135 c 0.91721,-2.56818 1.46754,-4.21916 1.92614,-5.77841 h 0.0917 c 0.45861,1.37581 0.91721,2.93506 2.01786,5.77841 l 3.944,10.73135 z"
     data-name="Pfad 11"
     id="Pfad_11"
     style="stroke-width:0.917209" />
  <path
     d="m 197.0165,345.7878 c 4.4026,-1.46753 6.87907,-4.67776 6.87907,-9.53897 0,-6.6039 -5.13637,-9.81414 -11.92372,-9.81414 h -8.89693 v 33.38641 h 4.58605 v -13.29953 h 3.48539 a 2.7727229,2.7727229 0 0 1 1.37582,0.36689 c 0.9172,0.64204 2.01786,2.01786 4.21916,5.13637 l 5.31981,7.70455 h 5.22809 l -7.24595,-10.27274 a 39.448243,39.448243 0 0 0 -3.02679,-3.66884 z m -5.59498,-2.93506 h -3.76055 v -12.74921 h 3.944 c 5.59497,0 7.70455,2.47646 7.70455,6.23702 0,4.31088 -2.29302,6.51219 -7.888,6.51219 z"
     data-name="Pfad 12"
     id="Pfad_12"
     style="stroke-width:0.917209" />
  <path
     d="m 268.28364,340.37627 c -3.39367,-1.55925 -6.05358,-2.93507 -6.05358,-6.1453 0,-2.93507 2.38475,-4.67777 5.59498,-4.67777 a 10.584592,10.584592 0 0 1 6.78734,2.29303 l 2.10958,-3.30196 c -1.19237,-0.9172 -3.94399,-2.6599 -8.98864,-2.6599 -5.2281,0 -9.90586,3.11851 -9.90586,8.62176 0,5.31982 3.57711,7.52112 7.61283,9.53898 3.85228,1.92614 7.61284,3.48539 7.61284,7.24595 0,2.84335 -2.56819,5.31981 -6.51219,5.31981 a 10.353456,10.353456 0 0 1 -7.52111,-2.84335 l -2.2013,3.21023 a 14.13786,14.13786 0 0 0 9.63069,3.39368 c 6.69563,0 11.09823,-3.76056 11.09823,-9.17209 0,-6.42047 -4.86121,-8.71349 -9.26381,-10.82307 z"
     data-name="Pfad 13"
     id="Pfad_13"
     style="stroke-width:0.917209" />
  <path
     d="m 293.23173,323.77479 a 2.9350689,2.9350689 0 0 0 2.93507,-2.84335 2.8892084,2.8892084 0 1 0 -2.93507,2.84335 z"
     data-name="Pfad 14"
     id="Pfad_14"
     style="stroke-width:0.917209" />
  <path
     d="m 302.7707,323.77479 a 2.843348,2.843348 0 1 0 -2.84335,-2.84335 2.9194763,2.9194763 0 0 0 2.84335,2.84335 z"
     data-name="Pfad 15"
     id="Pfad_15"
     style="stroke-width:0.917209" />
  <path
     d="m 306.89814,347.34706 c 0,5.50325 -2.75163,9.17209 -8.53004,9.17209 -6.05358,0 -8.80521,-3.11851 -8.80521,-9.81414 v -20.27032 h -4.49432 v 20.82065 c 0,7.97972 3.944,13.20781 13.20781,13.20781 8.8052,0 12.84092,-5.13637 12.84092,-13.48297 v -20.45377 h -4.21916 z"
     data-name="Pfad 16"
     id="Pfad_16"
     style="stroke-width:0.917209" />
  <path
     d="m 328.45255,326.43469 h -8.25488 v 33.38641 h 7.97972 c 13.29953,0 19.16967,-7.42939 19.16967,-17.06009 0.0917,-9.72241 -5.77842,-16.32632 -18.89451,-16.32632 z m 0.18345,29.62586 h -3.85228 v -25.95702 h 3.57711 c 9.72242,0 14.30846,3.944 14.30846,12.65748 0,8.71349 -4.8612,13.29954 -14.03329,13.29954 z"
     data-name="Pfad 17"
     id="Pfad_17"
     style="stroke-width:0.917209" />
  <path
     d="m 408.5249,345.7878 c 4.40261,-1.46753 6.87907,-4.67776 6.87907,-9.53897 0,-6.6039 -5.13637,-9.81414 -11.92372,-9.81414 h -8.89693 v 33.38641 h 4.58605 v -13.29953 h 3.48539 a 2.7727229,2.7727229 0 0 1 1.37582,0.36689 c 0.91721,0.64204 2.01786,2.01786 4.21916,5.13637 l 5.31981,7.70455 h 5.22809 l -7.24595,-10.27274 a 39.444574,39.444574 0 0 0 -3.02679,-3.66884 z m -5.68669,-2.93506 h -3.76056 v -12.74921 h 3.944 c 5.59497,0 7.70455,2.47646 7.70455,6.23702 0,4.31088 -2.29302,6.51219 -7.88799,6.51219 z"
     data-name="Pfad 18"
     id="Pfad_18"
     style="stroke-width:0.917209" />
  <path
     d="m 554.45286,326.43469 h -4.49433 v 33.29469 h 17.5187 v -3.76056 h -13.02437 z"
     data-name="Pfad 19"
     id="Pfad_19"
     style="stroke-width:0.917209" />
  <path
     d="m 525.56077,326.43469 -12.7492,33.38641 h 4.49432 l 2.84335,-7.888 h 14.85879 l 2.93507,7.888 h 4.95292 L 530.0551,326.43469 Z m -3.94399,21.73786 4.03572,-10.73135 c 0.9172,-2.56818 1.46753,-4.21916 1.92613,-5.77841 h 0.0917 c 0.45861,1.37581 0.91721,2.93506 2.01786,5.77841 l 3.944,10.73135 z"
     data-name="Pfad 20"
     id="Pfad_20"
     style="stroke-width:0.917209" />
  <path
     d="m 437.60043,325.79265 c -10.45618,0 -16.50976,8.16316 -16.50976,17.33525 0,9.08037 6.1453,17.24353 16.60148,17.24353 10.45618,0 16.50976,-8.16316 16.50976,-17.33525 0,-9.17209 -6.1453,-17.24353 -16.60148,-17.24353 z m 0,30.81822 c -7.70456,0 -11.74028,-6.32874 -11.74028,-13.57469 0,-7.24595 4.12744,-13.48298 11.832,-13.48298 7.70455,0 11.64855,6.32875 11.64855,13.5747 0,7.24595 -4.03572,13.48297 -11.74027,13.48297 z"
     data-name="Pfad 21"
     id="Pfad_21"
     style="stroke-width:0.917209" />
  <path
     d="m 491.71576,359.72938 h 4.12744 l 12.01544,-33.29469 h -4.03572 z"
     data-name="Pfad 22"
     id="Pfad_22"
     style="stroke-width:0.917209" />
  <path
     d="m 466.95112,326.43469 h -4.49433 v 33.29469 h 17.5187 v -3.76056 h -13.02437 z"
     data-name="Pfad 23"
     id="Pfad_23"
     style="stroke-width:0.917209" />
  <path
     d="m 683.04556,326.43469 h -8.25488 v 33.38641 h 7.97972 c 13.29953,0 19.16967,-7.42939 19.16967,-17.06009 0,-9.72241 -5.77842,-16.32632 -18.89451,-16.32632 z m 0.0917,29.62586 h -3.85228 v -25.95702 h 3.57711 c 9.72242,0 14.30846,3.944 14.30846,12.65748 0,8.71349 -4.76948,13.29954 -14.03329,13.29954 z"
     data-name="Pfad 24"
     id="Pfad_24"
     style="stroke-width:0.917209" />
  <path
     d="m 609.57712,325.79265 c -10.45618,0 -16.50976,8.16316 -16.50976,17.33525 0,9.08037 6.1453,17.24353 16.60148,17.24353 10.45619,0 16.50976,-8.16316 16.50976,-17.33525 0,-9.17209 -6.1453,-17.24353 -16.60148,-17.24353 z m 0,30.81822 c -7.70455,0 -11.74027,-6.32874 -11.74027,-13.57469 0,-7.24595 4.12744,-13.48298 11.83199,-13.48298 7.70456,0 11.64856,6.32875 11.64856,13.5747 0.0917,7.24595 -4.03572,13.48297 -11.74028,13.48297 z"
     data-name="Pfad 25"
     id="Pfad_25"
     style="stroke-width:0.917209" />
  <path
     d="m 650.94325,326.43469 -12.74921,33.38641 h 4.49433 l 2.84335,-7.888 h 14.85878 l 2.93507,7.888 h 4.95293 l -12.84093,-33.38641 z m -3.944,21.73786 4.03572,-10.73135 c 0.91721,-2.56818 1.46753,-4.21916 1.92614,-5.77841 h 0.0917 c 0.4586,1.37581 0.91721,2.93506 2.01786,5.77841 l 3.944,10.73135 z"
     data-name="Pfad 26"
     id="Pfad_26"
     style="stroke-width:0.917209" />
  <path
     d="m 764.67717,355.96882 v -11.92371 h 11.46511 v -3.76056 h -11.46511 v -10.0893 h 13.11609 v -3.76056 h -17.61042 v 33.29469 h 17.9773 v -3.76056 z"
     data-name="Pfad 27"
     id="Pfad_27"
     style="stroke-width:0.917209" />
  <path
     d="m 739.3622,345.7878 h 6.97079 v 8.80521 c -1.55926,1.19237 -4.31088,1.92614 -7.79628,1.92614 -8.3466,0 -12.10716,-6.60391 -12.10716,-13.66641 0,-6.97079 3.85228,-13.29954 12.19888,-13.29954 a 12.580439,12.580439 0 0 1 8.43832,2.65991 l 2.29303,-3.39367 c -2.65991,-2.01786 -6.05358,-3.11851 -10.54791,-3.11851 -10.91478,0 -17.06008,8.07144 -17.06008,17.15181 0,8.98864 6.05358,17.33525 16.78492,17.33525 5.6867,0 9.90586,-1.37582 12.38232,-3.39368 v -14.85878 h -11.46511 v 3.85227 z"
     data-name="Pfad 28"
     id="Pfad_28"
     style="stroke-width:0.917209" />
  <path
     d="m 271.40215,236.0896 v 34.57878 L 256.17648,236.0896 h -6.05358 l 19.99516,45.40185 H 160.6033 l 41.82473,-45.40185 h -7.52111 l -40.3572,43.93432 -43.93431,-43.93432 h -7.79628 l 50.9051,50.99683 H 276.90541 V 236.0896 Z"
     data-name="Pfad 29"
     fill="#732a83"
     id="Pfad_29"
     style="stroke-width:0.917209" />
  <path
     d="m 96.673832,236.0896 v 45.40185 H 6.3287423 L 17.610413,236.0896 H 11.923717 L 5.5032542,261.77146 V 236.0896 H 0 v 50.99683 H 102.17709 V 236.0896 Z"
     data-name="Pfad 30"
     fill="#732a83"
     id="Pfad_30"
     style="stroke-width:0.917209" />
  <path
     d="M 774.85819,273.51173 753.67066,236.0896 h -6.32874 l 25.68185,45.40185 H 667.26957 L 694.6024,236.0896 h -6.51219 l -23.02194,38.24762 V 236.0896 h -5.50326 v 50.99683 H 780.36144 V 236.0896 h -5.50325 z"
     data-name="Pfad 31"
     fill="#732a83"
     id="Pfad_31"
     style="stroke-width:0.917209" />
  <path
     d="m 517.48933,278.83155 9.1721,-42.74195 h -5.6867 l -9.72242,45.40185 h -82.0902 l 56.95868,-45.40185 h -8.89693 l -52.1892,41.73302 -6.51218,-41.73302 h -5.59497 l 6.51218,42.0999 -57.96761,-42.0999 h -9.35553 l 70.16649,50.99683 h 93.18843 l 70.1665,-50.99683 h -9.35554 z"
     data-name="Pfad 32"
     fill="#732a83"
     id="Pfad_32"
     style="stroke-width:0.917209" />
  <path
     d="m 240.12532,188.21129 h -10.91478 l 3.02679,7.15423 -37.33041,40.72408 h 7.52111 l 32.19404,-35.1291 15.50083,35.1291 h 6.05358 l -17.61041,-39.80687 z"
     data-name="Pfad 33"
     fill="#405fac"
     id="Pfad_33"
     style="stroke-width:0.917209" />
  <path
     d="m 605.26624,188.21129 h -5.77842 l -12.38232,38.1559 -50.9051,-31.18511 2.75163,-6.97079 h -5.96186 l -0.64205,1.65098 -0.91721,-1.65098 h -6.32874 l 1.46753,2.56819 -6.42046,-2.56819 h -14.85879 l 21.18753,8.53005 -49.25412,39.34826 h 8.89693 l 42.00817,-33.56985 -7.15423,33.56985 h 5.6867 l 7.61283,-35.58771 49.34585,30.17618 -7.33768,5.41153 h 9.35554 l 5.31981,-3.85227 z"
     data-name="Pfad 34"
     fill="#405fac"
     id="Pfad_34"
     style="stroke-width:0.917209" />
  <path
     d="m 276.90541,188.21129 h -5.50326 v 47.87831 h 5.50326 z"
     data-name="Pfad 35"
     fill="#405fac"
     id="Pfad_35"
     style="stroke-width:0.917209" />
  <path
     d="m 708.54398,188.21129 -43.47571,19.07795 v -19.07795 h -5.50326 v 47.87831 h 5.50326 v -22.74678 l 49.89617,-21.82957 -26.87423,44.57635 h 6.51219 l 27.14939,-45.12668 25.59013,45.12668 h 6.32874 l -27.14939,-47.87831 z"
     data-name="Pfad 36"
     fill="#405fac"
     id="Pfad_36"
     style="stroke-width:0.917209" />
  <path
     d="m 351.4745,228.84365 -13.20781,-40.63236 h -5.77842 l 14.30846,44.02604 5.31982,3.85227 h 9.35553 z"
     data-name="Pfad 37"
     fill="#405fac"
     id="Pfad_37"
     style="stroke-width:0.917209" />
  <path
     d="M 23.847435,188.21129 11.923717,236.0896 h 5.686696 l 11.923718,-47.87831 z"
     data-name="Pfad 38"
     fill="#405fac"
     id="Pfad_38"
     style="stroke-width:0.917209" />
  <path
     d="m 405.49811,188.21129 7.4294,47.87831 h 5.59497 l -7.42939,-47.87831 z"
     data-name="Pfad 39"
     fill="#405fac"
     id="Pfad_39"
     style="stroke-width:0.917209" />
  <path
     d="M 5.5032542,188.21129 H 0 v 47.87831 h 5.5032542 z"
     data-name="Pfad 40"
     fill="#405fac"
     id="Pfad_40"
     style="stroke-width:0.917209" />
  <path
     d="m 121.07159,188.21129 h -6.05358 l -15.867714,36.13804 -21.37097,-36.13804 h -6.420463 l 25.314969,42.65022 v 5.22809 h 5.503258 v -0.64204 l 0.64204,0.64204 h 7.79628 l -7.33767,-7.33767 z"
     data-name="Pfad 41"
     fill="#405fac"
     id="Pfad_41"
     style="stroke-width:0.917209" />
  <path
     d="m 780.36144,188.21129 h -5.50325 v 47.87831 h 5.50325 z"
     data-name="Pfad 42"
     fill="#405fac"
     id="Pfad_42"
     style="stroke-width:0.917209" />
  <path
     d="m 618.74921,140.4247 h -5.77842 l 1.00893,3.11851 -14.4919,44.66808 h 5.77842 l 14.4919,-44.66808 z"
     data-name="Pfad 43"
     fill="#108140"
     id="Pfad_43"
     style="stroke-width:0.917209" />
  <path
     d="m 665.06827,140.4247 h -5.50326 v 47.87831 h 5.50326 z"
     data-name="Pfad 44"
     fill="#108140"
     id="Pfad_44"
     style="stroke-width:0.917209" />
  <path
     d="m 35.771152,140.4247 -11.923717,47.78659 h 5.686696 L 41.457848,140.4247 Z"
     data-name="Pfad 45"
     fill="#108140"
     id="Pfad_45"
     style="stroke-width:0.917209" />
  <path
     d="m 43.108824,140.4247 28.250039,47.78659 h 6.420463 L 49.529288,140.4247 Z"
     data-name="Pfad 46"
     fill="#108140"
     id="Pfad_46"
     style="stroke-width:0.917209" />
  <path
     d="m 136.11382,140.4247 -21.09581,47.78659 h 6.05358 L 142.1674,140.4247 Z"
     data-name="Pfad 47"
     fill="#108140"
     id="Pfad_47"
     style="stroke-width:0.917209" />
  <path
     d="M 5.5032542,140.4247 H 0 v 47.87831 h 5.5032542 z"
     data-name="Pfad 48"
     fill="#108140"
     id="Pfad_48"
     style="stroke-width:0.917209" />
  <path
     d="m 497.86106,140.4247 27.24111,47.78659 h 6.32874 L 504.1898,140.4247 Z"
     data-name="Pfad 49"
     fill="#108140"
     id="Pfad_49"
     style="stroke-width:0.917209" />
  <path
     d="m 404.94779,140.4247 h -5.59498 v 0.36689 H 324.692 l 0.0917,-0.36689 h -5.77842 l -1.00893,3.11851 14.4919,44.66808 h 5.77842 L 324.692,146.29484 h 74.29393 l 6.51218,41.91645 h 5.59498 l -6.23702,-40.17375 100.43438,40.17375 h 14.85879 l -115.3849,-46.22733 z"
     data-name="Pfad 50"
     fill="#108140"
     id="Pfad_50"
     style="stroke-width:0.917209" />
  <path
     d="m 276.90541,140.4247 h -5.50326 v 47.87831 h 5.50326 z"
     data-name="Pfad 51"
     fill="#108140"
     id="Pfad_51"
     style="stroke-width:0.917209" />
  <path
     d="m 243.88588,140.4247 -9.17209,46.68594 -20.27032,-46.68594 h -6.05358 l 20.82065,47.78659 h 10.91478 l 9.44726,-47.78659 z"
     data-name="Pfad 52"
     fill="#108140"
     id="Pfad_52"
     style="stroke-width:0.917209" />
  <path
     d="m 774.85819,157.48479 -6.69563,-17.06009 h -5.87014 l 12.56577,32.19404 v 15.59255 h 5.50325 V 140.4247 h -5.50325 z"
     data-name="Pfad 53"
     fill="#108140"
     id="Pfad_53"
     style="stroke-width:0.917209" />
  <path
     d="m 708.54398,188.21129 h 17.97729 l -1.74269,-3.21023 9.90585,-44.57636 h -5.68669 l -9.6307,43.10883 z"
     data-name="Pfad 54"
     fill="#108140"
     id="Pfad_54"
     style="stroke-width:0.917209" />
  <path
     d="m 552.15984,140.4247 -19.16967,47.78659 h 5.96186 l 19.16966,-47.78659 z"
     data-name="Pfad 55"
     fill="#108140"
     id="Pfad_55"
     style="stroke-width:0.917209" />
  <path
     d="M 5.5032542,92.546391 H 0 V 140.4247 h 5.5032542 z"
     data-name="Pfad 56"
     fill="#fdec09"
     id="Pfad_56"
     style="stroke-width:0.917209" />
  <path
     d="M 739.63736,92.546391 728.99774,140.4247 h 5.68669 l 9.99758,-45.034961 17.61041,45.034961 h 5.87014 L 749.54322,92.546391 Z"
     data-name="Pfad 57"
     fill="#fdec09"
     id="Pfad_57"
     style="stroke-width:0.917209" />
  <path
     d="m 41.916453,138.40684 1.192371,2.01786 h 6.420464 L 44.117754,131.25261 67.965189,92.546391 H 61.453005 L 41.733011,124.46527 32.377479,92.546391 h -5.778417 l 11.373392,38.706219 -2.201302,9.17209 h 5.686696 z"
     data-name="Pfad 58"
     fill="#fdec09"
     id="Pfad_58"
     style="stroke-width:0.917209" />
  <path
     d="m 142.1674,140.4247 21.00409,-47.878309 h -6.05358 L 136.11382,140.4247 Z"
     data-name="Pfad 59"
     fill="#fdec09"
     id="Pfad_59"
     style="stroke-width:0.917209" />
  <path
     d="m 780.36144,92.546391 h -5.50325 V 140.4247 h 5.50325 z"
     data-name="Pfad 60"
     fill="#fdec09"
     id="Pfad_60"
     style="stroke-width:0.917209" />
  <path
     d="M 504.1898,140.4247 476.9487,92.546391 h -6.32875 l 27.24111,47.878309 z"
     data-name="Pfad 61"
     fill="#fdec09"
     id="Pfad_61"
     style="stroke-width:0.917209" />
  <path
     d="m 324.78372,140.4247 15.59255,-47.878309 h -5.87014 L 319.0053,140.4247 Z"
     data-name="Pfad 62"
     fill="#fdec09"
     id="Pfad_62"
     style="stroke-width:0.917209" />
  <path
     d="m 665.06827,92.546391 h -5.50326 V 140.4247 h 5.50326 z"
     data-name="Pfad 63"
     fill="#fdec09"
     id="Pfad_63"
     style="stroke-width:0.917209" />
  <path
     d="m 412.10202,92.546391 h -5.59498 l -7.15423,47.878309 h 5.59498 z"
     data-name="Pfad 64"
     fill="#fdec09"
     id="Pfad_64"
     style="stroke-width:0.917209" />
  <path
     d="m 276.90541,92.546391 h -5.50326 V 140.4247 h 5.50326 z"
     data-name="Pfad 65"
     fill="#fdec09"
     id="Pfad_65"
     style="stroke-width:0.917209" />
  <path
     d="m 258.92811,92.546391 h -5.6867 l -9.35553,47.878309 h 5.6867 z"
     data-name="Pfad 66"
     fill="#fdec09"
     id="Pfad_66"
     style="stroke-width:0.917209" />
  <path
     d="m 558.12169,140.4247 19.07795,-47.878309 h -5.96186 L 552.15984,140.4247 Z"
     data-name="Pfad 67"
     fill="#fdec09"
     id="Pfad_67"
     style="stroke-width:0.917209" />
  <path
     d="M 618.74921,140.4247 603.24838,92.546391 h -5.87014 l 15.59255,47.878309 z"
     data-name="Pfad 68"
     fill="#fdec09"
     id="Pfad_68"
     style="stroke-width:0.917209" />
  <path
     d="M 214.44347,140.4247 193.71455,92.546391 h -6.05358 l 20.72892,47.878309 z"
     data-name="Pfad 69"
     fill="#fdec09"
     id="Pfad_69"
     style="stroke-width:0.917209" />
  <path
     d="m 412.10202,92.546391 7.06251,-47.878311 h -5.59498 l -7.06251,47.878311 z"
     data-name="Pfad 70"
     fill="#f78c1e"
     id="Pfad_70"
     style="stroke-width:0.917209" />
  <path
     d="M 476.9487,92.546391 449.70759,44.66808 h -6.42047 l 27.33283,47.878311 z"
     data-name="Pfad 71"
     fill="#f78c1e"
     id="Pfad_71"
     style="stroke-width:0.917209" />
  <path
     d="m 780.36144,44.66808 h -5.50325 v 47.878311 h 5.50325 z"
     data-name="Pfad 72"
     fill="#f78c1e"
     id="Pfad_72"
     style="stroke-width:0.917209" />
  <path
     d="M 67.965189,92.546391 97.49932,44.66808 H 90.987136 L 61.453005,92.546391 Z"
     data-name="Pfad 73"
     fill="#f78c1e"
     id="Pfad_73"
     style="stroke-width:0.917209" />
  <path
     d="M 5.5032542,44.66808 H 0 v 47.878311 h 5.5032542 z"
     data-name="Pfad 74"
     fill="#f78c1e"
     id="Pfad_74"
     style="stroke-width:0.917209" />
  <path
     d="m 739.63736,92.546391 h 9.90586 l -2.65991,-6.695626 16.2346,-41.182685 h -5.96186 L 742.93931,80.897836 707.3516,44.66808 h -7.70455 l 41.2744,42.099894 z"
     data-name="Pfad 75"
     fill="#f78c1e"
     id="Pfad_75"
     style="stroke-width:0.917209" />
  <path
     d="m 585.27108,57.509006 -14.0333,35.037385 h 5.96186 l 11.18995,-27.883154 8.98865,27.883154 h 5.87014 L 591.23294,55.674588 590.95778,54.8491 577.10792,44.66808 h -9.44725 z"
     data-name="Pfad 76"
     fill="#f78c1e"
     id="Pfad_76"
     style="stroke-width:0.917209" />
  <path
     d="M 32.377479,92.546391 18.344181,44.66808 h -5.778417 l 14.033298,47.878311 z"
     data-name="Pfad 77"
     fill="#f78c1e"
     id="Pfad_77"
     style="stroke-width:0.917209" />
  <path
     d="m 665.06827,44.66808 h -5.50326 v 47.878311 h 5.50326 z"
     data-name="Pfad 78"
     fill="#f78c1e"
     id="Pfad_78"
     style="stroke-width:0.917209" />
  <path
     d="m 276.90541,44.66808 h -5.50326 v 47.878311 h 5.50326 z"
     data-name="Pfad 79"
     fill="#f78c1e"
     id="Pfad_79"
     style="stroke-width:0.917209" />
  <path
     d="m 258.92811,92.546391 9.35553,-47.878311 h -5.59497 l -9.44726,47.878311 z"
     data-name="Pfad 80"
     fill="#f78c1e"
     id="Pfad_80"
     style="stroke-width:0.917209" />
  <path
     d="m 172.06841,58.517936 -14.9505,34.028455 h 6.05358 l 12.2906,-28.066596 12.19888,28.066596 h 6.05358 L 178.21371,56.958681 V 44.66808 h -5.50325 v 6.695626 l -6.69563,-6.695626 h -7.79627 z"
     data-name="Pfad 81"
     fill="#f78c1e"
     id="Pfad_81"
     style="stroke-width:0.917209" />
  <path
     d="m 334.50613,92.546391 h 5.87014 L 351.4745,58.242773 370.09384,44.66808 h -9.44725 L 346.79673,54.8491 Z"
     data-name="Pfad 82"
     fill="#f78c1e"
     id="Pfad_82"
     style="stroke-width:0.917209" />
  <path
     d="m 659.56501,44.66808 h 5.50326 V 9.5389739 L 699.64705,44.66808 h 7.70455 L 668.92055,5.5032542 H 772.56517 L 757.15605,44.66808 h 5.96186 L 774.85819,14.767065 V 44.66808 h 5.50325 V 0 H 659.56501 Z"
     data-name="Pfad 83"
     fill="#e31e26"
     id="Pfad_83"
     style="stroke-width:0.917209" />
  <path
     d="m 178.21371,5.5032542 h 92.17951 L 262.68867,44.66808 h 5.59497 l 3.11851,-15.684275 V 44.66808 h 5.50326 V 0 H 172.71046 v 44.66808 h 5.50325 z"
     data-name="Pfad 84"
     fill="#e31e26"
     id="Pfad_84"
     style="stroke-width:0.917209" />
  <path
     d="M 418.88936,9.2638112 413.56955,44.66808 h 5.59498 l 5.04465,-33.47813 19.07794,33.47813 h 6.42047 L 427.32769,5.5032542 h 86.40109 L 567.66067,44.66808 h 9.44725 L 515.47147,0 h -93.18843 l -61.63645,44.66808 h 9.44725 z"
     data-name="Pfad 85"
     fill="#e31e26"
     id="Pfad_85"
     style="stroke-width:0.917209" />
  <path
     d="M 5.5032542,20.820645 12.565764,44.66808 h 5.778417 L 6.7873468,5.5032542 H 115.20145 L 90.987136,44.66808 H 97.49932 L 120.61299,7.1542304 158.21856,44.66808 h 7.79627 L 121.34675,0 H 0 v 44.66808 h 5.5032542 z"
     data-name="Pfad 86"
     fill="#e31e26"
     id="Pfad_86"
     style="stroke-width:0.917209" />
  <g
     id="g1173"
     transform="matrix(0.99999882,0,0,1.0007317,0.54944945,-1.6642033)">
    <path
       id="Path_30"
       data-name="Path 30"
       d="m 876.93029,234.95956 h 35.98833 l -2.0683,-5.90941 -15.75843,-46.46769 q -1.79253,5.51545 -16.1327,46.60557 z m 47.295,33.36849 -8.86412,-25.78474 h -41.05072 l -8.96261,25.78474 h -9.23838 l 32.81694,-92.93537 h 12.40977 l 32.12751,92.93537 z m 83.00751,-34.88524 v -58.05013 h 8.549 v 57.77436 a 38.007375,38.007375 0 0 1 -8.6868,27.09466 32.186603,32.186603 0 0 1 -24.5438,9.16944 31.989623,31.989623 0 0 1 -24.19905,-8.98231 36.362588,36.362588 0 0 1 -8.61789,-26.1984 v -58.85775 h 8.54895 v 58.73956 a 27.951524,27.951524 0 0 0 6.5496,20.47612 23.942972,23.942972 0 0 0 17.72824,6.5496 q 24.67175,0 24.67175,-27.71515 z m 81.6287,-58.05013 v 7.87921 h -25.7847 v 85.05616 h -8.5489 V 183.2522 h -25.6075 v -7.87922 z m 8.9627,46.05402 a 52.534682,52.534682 0 0 1 10.9619,-34.95418 36.805794,36.805794 0 0 1 29.6751,-13.03025 36.992926,36.992926 0 0 1 30.0592,12.89237 53.096077,53.096077 0 0 1 10.7946,35.09206 52.702116,52.702116 0 0 1 -10.8931,35.06252 36.687606,36.687606 0 0 1 -29.6455,12.92192 37.219453,37.219453 0 0 1 -29.7145,-13.0992 51.736912,51.736912 0 0 1 -11.2377,-34.88524 z m 8.8641,0 a 44.448635,44.448635 0 0 0 8.7558,29.02507 28.680351,28.680351 0 0 0 23.3323,10.68619 28.059863,28.059863 0 0 0 23.4407,-10.55815 46.142667,46.142667 0 0 0 8.2731,-29.16296 45.8078,45.8078 0 0 0 -8.3913,-29.22204 28.483371,28.483371 0 0 0 -23.6377,-10.47936 28.345485,28.345485 0 0 0 -23.3717,10.5483 45.3055,45.3055 0 0 0 -8.4406,29.16295 z m 89.8821,46.88135 6.4807,-92.93537 h 11.7203 l 12.134,34.05791 16.4085,47.27531 q 9.5142,-26.1984 17.3737,-47.27531 l 12.7052,-34.05791 h 11.7204 l 7.8201,92.93537 h -8.549 l -3.1714,-36.81565 -3.7229,-44.93123 q -8.2732,23.02701 -16.4085,44.95093 l -12.8037,34.47158 h -10.0854 l -12.134,-34.47158 -15.4433,-43.96603 q -1.2409,20.78143 -2.8956,43.94633 l -2.6198,36.81565 z m 132.627,-33.36849 h 35.9883 l -2.0683,-5.90941 -15.7584,-46.46769 q -1.7926,5.51545 -16.1327,46.60557 z m 47.295,33.36849 -8.8641,-25.78474 h -41.0508 l -8.9626,25.78474 h -9.2384 l 32.817,-92.93537 h 12.4097 l 32.1276,92.93537 z m 76.5269,-92.93537 v 7.87921 h -25.7848 v 85.05616 h -8.5489 V 183.2522 h -25.6075 v -7.87922 z m 13.7886,92.93537 v -92.93537 h 8.549 v 92.93537 z m 27.203,-46.88135 a 52.534682,52.534682 0 0 1 10.962,-34.95418 36.805794,36.805794 0 0 1 29.7145,-13.03025 36.992926,36.992926 0 0 1 30.0592,12.89237 53.096077,53.096077 0 0 1 10.7157,35.09206 52.702116,52.702116 0 0 1 -10.893,35.06252 36.687606,36.687606 0 0 1 -29.6456,12.92192 37.219453,37.219453 0 0 1 -29.7145,-13.0992 51.736912,51.736912 0 0 1 -11.1983,-34.88524 z m 8.8641,0 a 44.448635,44.448635 0 0 0 8.7558,29.02507 28.680351,28.680351 0 0 0 23.2929,10.68619 28.059863,28.059863 0 0 0 23.4407,-10.55815 46.142667,46.142667 0 0 0 8.2732,-29.16296 45.8078,45.8078 0 0 0 -8.3421,-29.23189 28.483371,28.483371 0 0 0 -23.6377,-10.47936 28.345485,28.345485 0 0 0 -23.3717,10.5483 45.3055,45.3055 0 0 0 -8.4899,29.1728 z m 90.5125,46.88135 v -92.93537 h 11.7204 l 23.7164,39.29759 26.1984,43.57208 q -0.2758,-14.34018 -0.2758,-43.43419 v -39.39609 h 8.549 v 92.89598 h -11.7006 l -23.6377,-39.02183 -26.2969,-43.84784 q 0.2758,14.89172 0.2758,43.57207 v 39.2976 z"
       style="stroke-width:9.84902" />
    <path
       id="Path_31"
       data-name="Path 31"
       d="m 877.46214,87.224233 h 36.93383 L 912.27843,81.31482 896.17528,34.827437 q -1.84177,5.515453 -16.54636,46.605572 z m 48.52613,33.368487 -9.05125,-25.78474 H 874.7832 l -9.19898,25.78474 h -9.47476 l 33.66396,-92.935371 h 12.73478 l 32.96468,92.935371 z M 1011.1528,85.707484 V 27.657349 h 8.7754 v 57.774362 a 37.426283,37.426283 0 0 1 -8.8641,27.094659 33.486674,33.486674 0 0 1 -25.26272,9.16944 33.299543,33.299543 0 0 1 -24.79984,-8.98231 35.791345,35.791345 0 0 1 -8.86412,-26.198396 V 27.657349 h 8.77548 v 58.739566 a 27.508318,27.508318 0 0 0 6.71703,20.476115 24.927874,24.927874 0 0 0 18.17145,6.5496 q 25.35142,0 25.35142,-27.715146 z m 83.7166,-58.050135 v 7.879218 h -26.4249 v 85.056153 h -8.7755 V 35.516869 h -26.3067 v -7.879218 z m 9.199,46.054026 a 51.658119,51.658119 0 0 1 11.2476,-34.954178 38.194507,38.194507 0 0 1 30.532,-13.030256 38.411185,38.411185 0 0 1 30.8373,12.89237 52.199816,52.199816 0 0 1 11.021,35.092064 51.815704,51.815704 0 0 1 -11.1885,35.062515 38.076318,38.076318 0 0 1 -30.4137,12.92192 38.627863,38.627863 0 0 1 -30.532,-13.0992 50.889896,50.889896 0 0 1 -11.4741,-34.885235 z m 9.0513,0 a 43.690261,43.690261 0 0 0 8.9823,29.025065 29.734197,29.734197 0 0 0 24.0021,10.68619 29.103859,29.103859 0 0 0 24.0513,-10.55815 45.3055,45.3055 0 0 0 8.4898,-29.153105 44.990332,44.990332 0 0 0 -8.5588,-29.231896 29.547065,29.547065 0 0 0 -24.2581,-10.479359 29.39933,29.39933 0 0 0 -23.9824,10.548302 44.537277,44.537277 0 0 0 -8.6967,29.162953 z m 92.2656,46.881345 6.6481,-92.935371 h 12.0158 l 12.4492,34.057918 16.832,47.275303 q 9.7603,-26.198396 17.8267,-47.275303 l 13.0105,-34.057918 h 12.0257 l 8.0663,92.935371 h -8.7754 l -3.2502,-36.815644 -3.8116,-44.931238 q -8.4898,23.027013 -16.832,44.950936 l -13.1582,34.471576 h -10.3317 L 1235.6514,83.796774 1219.8141,39.83074 q -1.2705,20.820833 -2.9547,43.985732 l -2.7085,36.776248 z m 116.4155,-46.881345 a 51.658119,51.658119 0 0 1 11.2475,-34.954178 38.194507,38.194507 0 0 1 30.532,-13.030256 38.411185,38.411185 0 0 1 30.8373,12.89237 52.199816,52.199816 0 0 1 10.9521,35.092064 51.815704,51.815704 0 0 1 -11.1392,35.062515 38.076318,38.076318 0 0 1 -30.4138,12.92192 38.627863,38.627863 0 0 1 -30.532,-13.0992 50.889896,50.889896 0 0 1 -11.4839,-34.885235 z m 9.0512,0 a 43.690261,43.690261 0 0 0 8.9823,29.025065 29.734197,29.734197 0 0 0 23.9824,10.68619 29.103859,29.103859 0 0 0 24.0513,-10.55815 45.3055,45.3055 0 0 0 8.4899,-29.162954 44.990332,44.990332 0 0 0 -8.5588,-29.231896 29.547065,29.547065 0 0 0 -24.2582,-10.47936 29.39933,29.39933 0 0 0 -23.9824,10.548303 44.537277,44.537277 0 0 0 -8.6966,29.172802 z m 145.2928,-46.054026 v 7.879218 h -26.4545 v 85.056153 h -8.7755 V 35.516869 h -26.3067 v -7.879218 z m 14.1432,92.935371 V 27.657349 h 8.7755 v 92.935371 z m 104.3996,-92.935371 -33.5261,92.935371 h -11.9961 l -32.423,-92.935371 h 9.4748 l 12.5871,36.795946 16.4183,48.555675 16.9698,-48.555675 13.0204,-36.795946 z m 25.7453,85.056151 h 42.863 v 7.87922 h -51.6384 V 27.657349 h 50.7717 v 7.879218 h -41.9963 v 34.727651 h 37.0718 v 7.879217 h -37.0718 z"
       style="stroke-width:9.84902" />
    <line
       id="Line_11"
       data-name="Line 11"
       y1="125.51729"
       x2="1734.8195"
       fill="none"
       stroke="#000000"
       stroke-width="5.90941"
       x1="1695.4233"
       y2="27.027071" />
  </g>
</svg>
