<svg xmlns="http://www.w3.org/2000/svg" viewBox="0 0 475.2 475.2"  xmlns:v="https://vecta.io/nano"><path d="M29.2 475.2c-7.5 0-15-3.2-20.5-8.7S.2 453.7.2 445.9s3-15.1 8.5-20.6l187.7-187.7L8.7 49.9C-2.6 38.6-2.6 20.1 8.6 8.7 14.2 3.1 21.5.1 29.2.1c7.8 0 15.2 3 20.7 8.6l187.7 187.7L425.2 8.7C430.7 3.2 438 .1 445.8.1s15.1 3 20.6 8.6c5.5 5.5 8.5 12.8 8.5 20.6s-3 15.1-8.5 20.6L278.8 237.6l187.3 187.7c5.5 5.5 8.6 12.9 8.6 20.7 0 7.7-3 15-8.5 20.4-5.4 5.6-12.7 8.7-20.6 8.7-7.5 0-15-3.2-20.5-8.7L237.4 278.8 49.7 466.5c-5.3 5.5-12.8 8.7-20.5 8.7z"/></svg>