<svg xmlns="http://www.w3.org/2000/svg" viewBox="0 0 10.77 10.77">
  <path id="_005-exit" data-name="005-exit" d="M8.094,8.246v.841A1.685,1.685,0,0,1,6.411,10.77H2.183A1.685,1.685,0,0,1,.5,9.087v-7.4A1.685,1.685,0,0,1,2.183,0H6.411A1.685,1.685,0,0,1,8.094,1.683v.841a.421.421,0,1,1-.841,0V1.683A.842.842,0,0,0,6.411.841H2.183a.842.842,0,0,0-.841.841v7.4a.842.842,0,0,0,.841.841H6.411a.842.842,0,0,0,.841-.841V8.246a.421.421,0,1,1,.841,0Zm2.868-3.583L10.02,3.72a.421.421,0,0,0-.595.595l.67.67H5.044a.421.421,0,0,0,0,.841h5.051l-.67.67a.421.421,0,1,0,.595.595l.942-.942A1.053,1.053,0,0,0,10.962,4.662Zm0,0" transform="translate(-0.5)"/>
</svg>
